<?xml version="1.0" encoding="UTF-8"?>
<svg xmlns="http://www.w3.org/2000/svg"
    xmlns:xlink="http://www.w3.org/1999/xlink"
    version="1.1" baseProfile="full"
    viewBox="-5 -5 10 10">
    <title>Aotus logo</title>
    <desc>Aotus</desc>

<!--<path d="M -4,0
         A 4,4 0,1,0, 4,0
         A 2,2 0,0,0, 2,-2
         A 2,2 0,0,1, 0,-4
         L 0,0"
      stroke="black" stroke-width="0.4"
      stroke-linecap="round" stroke-linejoin="round"
      fill="none"/> -->
<circle cx="0" cy="0" r="4.5" stroke="black" stroke-width="1" fill="white" />
<circle cx="-2" cy="0" r="1.2" stroke="chocolate" stroke-width="1" fill="black" />
<circle cx="2" cy="0" r="1.2" stroke="chocolate" stroke-width="1" fill="black" />

<path d="M -1,3.872983346207417
         A 8,8 0,0,0, -1,-3.872983346207417
         A 4,4 0,0,1, 1,-3.872983346207417
         A 8,8 0,0,0, 1,3.872983346207417
         A 4,4 0,0,1, -1,3.872983346207417 z"
      stroke="black" stroke-width="0.1"
      stroke-linecap="butt"
      fill="black"/>

<path d="M -1,3.976179070414208
         A 4.1,4.1 0,0,0, 1,3.976179070414208
         A 1.2,1.2 0,0,1, -1,3.976179070414208 z"
      stroke="none" fill="chocolate"/>

</svg>
